<svg width="118" height="27" viewBox="0 0 118 27" fill="none" xmlns="http://www.w3.org/2000/svg">
<g clip-path="url(#clip0)">
<path d="M110.489 1.91793L116.798 13.5215L110.489 25.0389L91.3225 25.0781V1.91793H110.487H110.489ZM111.12 0.865906H90.2656V26.138L111.122 26.0968L117.999 13.5294L111.122 0.871783L111.12 0.865906Z" fill="black"/>
<path d="M13.5879 1.05202C16.6828 1.05534 19.6663 2.2006 21.9594 4.26567C24.2526 6.33073 25.6921 9.1684 25.9986 12.2282C26.3052 15.2881 25.4569 18.352 23.6185 20.8256C21.78 23.2993 19.0823 25.0064 16.0487 25.6157C13.0151 26.2251 9.86187 25.6934 7.20057 24.1236C4.53926 22.5538 2.55962 20.058 1.64565 17.1202C0.731671 14.1824 0.948508 11.012 2.2541 8.224C3.55968 5.43603 5.86096 3.22919 8.71153 2.03156C10.2541 1.38253 11.9127 1.04937 13.5879 1.05202ZM13.5879 0C10.9004 0 8.27337 0.791762 6.03885 2.27516C3.80434 3.75856 2.06275 5.86697 1.03432 8.33377C0.00588684 10.8006 -0.263197 13.515 0.261093 16.1337C0.785384 18.7525 2.0795 21.1579 3.9798 23.0459C5.88009 24.934 8.30122 26.2197 10.937 26.7406C13.5728 27.2615 16.3049 26.9942 18.7877 25.9724C21.2706 24.9506 23.3927 23.2203 24.8858 21.0002C26.3788 18.7801 27.1757 16.17 27.1757 13.5C27.1757 9.91957 25.7441 6.4858 23.1959 3.95406C20.6477 1.42232 17.1916 0 13.5879 0Z" fill="black"/>
<path d="M44.5156 7.27014H44.3815H38.9551V19.8082H40.3472V14.0877H46.2153V19.8082H47.5956V14.2797C47.5953 14.0428 47.5332 13.8099 47.4153 13.6039C47.2975 13.3979 47.1279 13.2258 46.9232 13.1043C47.4081 12.6298 47.7399 12.0228 47.8764 11.3604C48.0129 10.698 47.948 10.0102 47.6898 9.38456C47.4316 8.75896 46.9919 8.22383 46.4267 7.84729C45.8614 7.47076 45.1962 7.26985 44.5156 7.27014ZM44.5156 12.7673H40.3472V8.6415H44.5215C44.7997 8.63298 45.0768 8.68006 45.3363 8.77995C45.5958 8.87984 45.8325 9.0305 46.0323 9.22299C46.2321 9.41548 46.391 9.64588 46.4995 9.90053C46.6079 10.1552 46.6638 10.4289 46.6638 10.7054C46.6638 10.9819 46.6079 11.2556 46.4995 11.5102C46.391 11.7649 46.2321 11.9953 46.0323 12.1878C45.8325 12.3803 45.5958 12.5309 45.3363 12.6308C45.0768 12.7307 44.7997 12.7778 44.5215 12.7693L44.5156 12.7673Z" fill="black"/>
<path d="M9.08203 8.51024H12.8423V18.5897H9.08203V19.8298H18.0913V18.5897H14.331V8.51024H18.0913V7.27014H9.08203V8.51024Z" fill="black"/>
<path d="M73.9858 14.4717L79.0495 7.26816H77.2965L73.2484 13.1669L69.2002 7.26816H67.4473L72.5109 14.4952L72.5346 16.3191V18.5897H68.7428V19.8298H72.5346H73.9622H77.754V18.5897H73.9622V16.3465L73.9858 14.4717Z" fill="black"/>
<path d="M106.14 13.6391C105.352 13.1297 104.301 12.8417 102.97 12.5635C100.682 12.0875 100.491 11.1648 100.491 10.338C100.483 10.0857 100.534 9.83503 100.641 9.60582C100.747 9.37662 100.906 9.17522 101.104 9.01762C101.57 8.64147 102.266 8.44557 103.127 8.44557C103.486 8.43907 103.841 8.51039 104.169 8.65454C104.496 8.7987 104.788 9.0122 105.024 9.28013C105.497 9.8245 105.754 10.5205 105.75 11.2392H107.146C107.153 10.1808 106.77 9.15629 106.069 8.35937C105.701 7.94595 105.248 7.61588 104.74 7.39146C104.233 7.16704 103.683 7.05351 103.127 7.05854C101.944 7.05854 100.958 7.36416 100.237 7.94013C99.8765 8.22786 99.5873 8.59339 99.3908 9.00891C99.1943 9.42443 99.0958 9.879 99.1028 10.338C99.1028 12.2736 100.244 13.4118 102.692 13.9231C105.395 14.4854 106.182 15.0261 106.201 16.3328C106.218 16.5987 106.181 16.8653 106.091 17.1163C106 17.3672 105.86 17.5973 105.677 17.7923C105.184 18.288 104.344 18.5524 103.244 18.5524C102.755 18.5688 102.27 18.4646 101.832 18.2492C101.394 18.0338 101.017 17.714 100.733 17.3182C100.258 16.6747 99.9871 15.9043 99.9566 15.1064H98.5605C98.5877 16.2007 98.9502 17.2607 99.5997 18.145C100.012 18.7159 100.559 19.1781 101.192 19.4915C101.826 19.8049 102.526 19.96 103.234 19.9434C104.715 19.9434 105.902 19.5379 106.663 18.7679C106.976 18.4424 107.219 18.0572 107.378 17.6357C107.537 17.2141 107.608 16.7649 107.588 16.3152C107.57 15.1299 107.097 14.2562 106.14 13.6391Z" fill="black"/>
<path d="M79.0519 2.00415C79.8091 2.00389 80.5589 2.15188 81.2586 2.43966C81.9582 2.72745 82.5939 3.14939 83.1294 3.68137C83.6648 4.21334 84.0895 4.84493 84.3791 5.54004C84.6688 6.23515 84.8178 6.98016 84.8175 7.73249V19.2656C84.8178 20.018 84.6688 20.7631 84.3792 21.4583C84.0896 22.1535 83.6649 22.7852 83.1295 23.3174C82.5941 23.8495 81.9584 24.2716 81.2587 24.5596C80.5591 24.8476 79.8092 24.9959 79.0519 24.9959H67.4358C65.9063 24.9954 64.4396 24.3915 63.3581 23.3169C62.2766 22.2424 61.6688 20.7852 61.6682 19.2656V7.73249C61.6682 6.98007 61.8174 6.23502 62.1073 5.53989C62.3972 4.84477 62.8221 4.2132 63.3577 3.68125C63.8932 3.1493 64.5291 2.72739 65.2288 2.43963C65.9286 2.15187 66.6785 2.00389 67.4358 2.00415H79.044H79.0519ZM79.044 0.950165H67.4358C65.6253 0.950165 63.889 1.66473 62.6088 2.93666C61.3286 4.20859 60.6094 5.9337 60.6094 7.73249V19.2656C60.6094 21.0644 61.3286 22.7895 62.6088 24.0614C63.889 25.3333 65.6253 26.0479 67.4358 26.0479H79.044C80.8545 26.0479 82.5908 25.3333 83.871 24.0614C85.1512 22.7895 85.8704 21.0644 85.8704 19.2656V7.73249C85.8704 5.9337 85.1512 4.20859 83.871 2.93666C82.5908 1.66473 80.8545 0.950165 79.044 0.950165Z" fill="black"/>
<path d="M54.1034 2.47234V24.5257H31.9065V2.47234H54.1034ZM55.1622 1.42032H30.8477V25.5777H55.1622V1.42032Z" fill="black"/>
</g>
<defs>
<clipPath id="clip0">
<rect width="118" height="27" fill="white"/>
</clipPath>
</defs>
</svg>
